/* XPM */
static char * win_xpm[] = {
"15 15 2 1",
" 	c None",
".	c #718540",
"...............",
".  .  .  ......",
".  .  .  ......",
"...............",
"...............",
"...............",
".             .",
".             .",
".             .",
".             .",
".             .",
".             .",
".             .",
".             .",
"..............."};
